<svg fill='#17BEBB' xmlns="http://www.w3.org/2000/svg" version="1.1" xmlns:xlink="http://www.w3.org/1999/xlink" xmlns:svgjs="http://svgjs.com/svgjs" width="300" height="300" transform="matrix(1,0,0,1,0,0)">
  <path transform="matrix(1,0,0,1,50,50)" d="M100,75A25,25,0,1,0,150,75A25,25,0,1,0,100,75M100,125A25,25,0,1,0,150,125A25,25,0,1,0,100,125M50,75A25,25,0,1,0,100,75A25,25,0,1,0,50,75M100,25A24.999999999999996,24.999999999999996,90,0,1,125,0L150,0L150,50L125,50A24.999999999999996,24.999999999999996,90,0,1,100,25ZM150,0L175,0A24.999999999999996,24.999999999999996,90,0,1,200,25L200,50L150,50ZM150,50L200,50L200,100L150,100ZM150,100L200,100L200,150L150,150ZM150,150L200,150L200,175A25.000000000000007,25.000000000000007,-270,0,1,175,200L150,200ZM100,150L150,150L150,200L100,200ZM50,150L100,150L100,200L50,200ZM0,150L50,150L50,200L25,200A24.999999999999996,24.999999999999996,90,0,1,0,175ZM0,100L50,100L50,150L0,150ZM0,75A24.999999999999996,24.999999999999996,90,0,1,25,50L25,50A24.999999999999996,24.999999999999996,90,0,1,50,75L50,100L0,100Z"/>
</svg>